ffmpeg started on 2016-11-27 at 23:09:05
Report written to "Output/NVENCh264/results/ffmpeg/crowd_run_2160p50llhp4000k.log"
Command line:
Tools/ffmpeg/ffmpeg -benchmark -y -i Input/y4m/crowd_run_2160p50.y4m -c:v h264_nvenc -preset llhp -b:v 4000k -an Output/NVENCh264/encoded/crowd_run_2160p50llhp4000k.mkv
ffmpeg version N-82227-gdb23fde Copyright (c) 2000-2016 the FFmpeg developers
  built with gcc 5.4.0 (Ubuntu 5.4.0-6ubuntu1~16.04.2) 20160609
  configuration: --prefix=/home/jaroslav/ffmpeg_build --pkg-config-flags=--static --extra-cflags=-I/home/jaroslav/ffmpeg_build/include --extra-ldflags=-L/home/jaroslav/ffmpeg_build/lib --bindir=/home/jaroslav/bin --enable-gpl --enable-libass --enable-libfdk-aac --enable-libfreetype --enable-libmp3lame --enable-libopus --enable-libtheora --enable-libvorbis --enable-libvpx --enable-libx264 --enable-libx265 --enable-nvenc --enable-libmfx --enable-libxvid --enable-libgsm --enable-libopencore-amrnb --enable-version3 --enable-nonfree
  libavutil      55. 35.100 / 55. 35.100
  libavcodec     57. 66.101 / 57. 66.101
  libavformat    57. 57.100 / 57. 57.100
  libavdevice    57.  2.100 / 57.  2.100
  libavfilter     6. 66.100 /  6. 66.100
  libswscale      4.  3.100 /  4.  3.100
  libswresample   2.  4.100 /  2.  4.100
  libpostproc    54.  2.100 / 54.  2.100
Input #0, yuv4mpegpipe, from 'Input/y4m/crowd_run_2160p50.y4m':
  Duration: 00:00:10.00, start: 0.000000, bitrate: 4976642 kb/s
    Stream #0:0: Video: rawvideo (I420 / 0x30323449), yuv420p(progressive), 3840x2160, SAR 1:1 DAR 16:9, 50 fps, 50 tbr, 50 tbn, 50 tbc
[h264_nvenc @ 0x45051c0] The variable bitrate rate-control requires the 'qmin' and/or 'qmax' option set.
Output #0, matroska, to 'Output/NVENCh264/encoded/crowd_run_2160p50llhp4000k.mkv':
  Metadata:
    encoder         : Lavf57.57.100
    Stream #0:0: Video: h264 (h264_nvenc) (Main) (H264 / 0x34363248), yuv420p, 3840x2160 [SAR 1:1 DAR 16:9], q=-1--1, 4000 kb/s, 50 fps, 1k tbn, 50 tbc
    Metadata:
      encoder         : Lavc57.66.101 h264_nvenc
    Side data:
      cpb: bitrate max/min/avg: 0/0/4000000 buffer size: 8000000 vbv_delay: -1
Stream mapping:
  Stream #0:0 -> #0:0 (rawvideo (native) -> h264 (h264_nvenc))
Press [q] to stop, [?] for help
frame=   14 fps=0.0 q=0.0 size=       0kB time=00:00:00.00 bitrate=N/A speed=   0x    frame=   29 fps= 28 q=0.0 size=       0kB time=00:00:00.00 bitrate=N/A speed=   0x    frame=   45 fps= 29 q=49.0 size=       1kB time=00:00:00.28 bitrate=  21.3kbits/s speed=0.184x    frame=   63 fps= 31 q=49.0 size=       1kB time=00:00:00.64 bitrate=   9.3kbits/s speed=0.313x    frame=   81 fps= 32 q=49.0 size=       1kB time=00:00:01.00 bitrate=   6.0kbits/s speed=0.39x    frame=   99 fps= 32 q=49.0 size=       1kB time=00:00:01.36 bitrate=   4.4kbits/s speed=0.44x    frame=  117 fps= 32 q=49.0 size=       1kB time=00:00:01.72 bitrate=   3.5kbits/s speed=0.475x    frame=  125 fps= 16 q=49.0 size=       1kB time=00:00:01.88 bitrate=   3.2kbits/s speed=0.246x    frame=  126 fps= 11 q=49.0 size=       1kB time=00:00:01.90 bitrate=   3.1kbits/s speed=0.171x    frame=  127 fps= 11 q=49.0 size=       1kB time=00:00:01.92 bitrate=   3.1kbits/s speed=0.162x    frame=  144 fps= 12 q=49.0 size=       1kB time=00:00:02.26 bitrate=   2.6kbits/s speed=0.182x    frame=  161 fps= 12 q=49.0 size=       1kB time=00:00:02.60 bitrate=   2.3kbits/s speed=0.202x    frame=  178 fps= 13 q=49.0 size=       1kB time=00:00:02.94 bitrate=   2.0kbits/s speed=0.219x    frame=  195 fps= 14 q=49.0 size=       1kB time=00:00:03.28 bitrate=   1.8kbits/s speed=0.236x    frame=  212 fps= 15 q=49.0 size=       1kB time=00:00:03.62 bitrate=   1.7kbits/s speed=0.251x    frame=  229 fps= 15 q=49.0 size=       1kB time=00:00:03.96 bitrate=   1.5kbits/s speed=0.265x    frame=  247 fps= 16 q=49.0 size=       1kB time=00:00:04.32 bitrate=   1.4kbits/s speed=0.28x    frame=  265 fps= 17 q=49.0 size=       1kB time=00:00:04.68 bitrate=   1.3kbits/s speed=0.293x    frame=  282 fps= 17 q=49.0 size=    3216kB time=00:00:05.02 bitrate=5246.4kbits/s speed=0.304x    frame=  298 fps= 18 q=49.0 size=    3216kB time=00:00:05.34 bitrate=4932.1kbits/s speed=0.314x    frame=  316 fps= 18 q=49.0 size=    3216kB time=00:00:05.70 bitrate=4620.7kbits/s speed=0.325x    frame=  334 fps= 19 q=49.0 size=    3216kB time=00:00:06.06 bitrate=4346.2kbits/s speed=0.336x    frame=  352 fps= 19 q=49.0 size=    3216kB time=00:00:06.42 bitrate=4102.5kbits/s speed=0.346x    frame=  370 fps= 19 q=49.0 size=    3216kB time=00:00:06.78 bitrate=3884.7kbits/s speed=0.355x    frame=  388 fps= 20 q=49.0 size=    3216kB time=00:00:07.14 bitrate=3688.9kbits/s speed=0.364x    frame=  406 fps= 20 q=49.0 size=    3216kB time=00:00:07.50 bitrate=3511.8kbits/s speed=0.373x    frame=  424 fps= 21 q=49.0 size=    3216kB time=00:00:07.86 bitrate=3351.0kbits/s speed=0.381x    frame=  442 fps= 21 q=49.0 size=    3216kB time=00:00:08.22 bitrate=3204.3kbits/s speed=0.388x    frame=  460 fps= 21 q=49.0 size=    3216kB time=00:00:08.58 bitrate=3069.8kbits/s speed=0.396x    frame=  478 fps= 22 q=49.0 size=    3216kB time=00:00:08.94 bitrate=2946.2kbits/s speed=0.403x    frame=  493 fps= 22 q=49.0 size=    3216kB time=00:00:09.24 bitrate=2850.6kbits/s speed=0.405x    frame=  500 fps= 22 q=49.0 Lsize=    6491kB time=00:00:09.98 bitrate=5327.5kbits/s speed=0.432x    
video:6487kB audio:0kB subtitle:0kB other streams:0kB global headers:0kB muxing overhead: 0.065549%
bench: utime=1.108s
bench: maxrss=1409128kB
